# Blender v2.80 (sub 75) OBJ File: ''
# www.blender.org
mtllib bracket.mtl
o Cube_Cube.000_Cube_Cube.003
v 0.000000 0.484300 -0.555997
v -0.279874 0.484351 -0.556081
v -0.303915 1.103198 -0.000001
v 0.000000 1.103193 -0.000001
v 0.000000 0.000000 -0.981042
v 0.278541 0.000000 -0.983328
v -0.278541 0.000000 -0.983328
v 0.279874 0.484351 -0.556081
v 0.303915 1.103198 -0.000001
v 0.000000 0.340883 -0.342951
v 0.000000 0.720291 -0.001002
v -0.275048 0.720000 -0.000002
v -0.280000 0.340883 -0.342951
v 0.277773 0.000000 -0.640690
v 0.000000 0.000000 -0.642126
v -0.277773 0.000000 -0.640690
v 0.280000 0.340883 -0.342951
v 0.275048 0.720000 -0.000002
v -0.140000 0.340883 -0.342951
v 0.000000 0.551009 -0.158535
v -0.137524 0.720145 -0.000502
v -0.277524 0.550864 -0.158035
v 0.138886 0.000000 -0.641408
v -0.138886 0.000000 -0.641408
v 0.140000 0.340883 -0.342951
v 0.277524 0.550864 -0.158035
v 0.137524 0.720145 -0.000502
v 0.278886 0.170442 -0.491820
v 0.000000 0.170442 -0.492539
v -0.278886 0.170442 -0.491820
v -0.137524 0.550864 -0.158035
v 0.137524 0.550864 -0.158035
v 0.138886 0.170442 -0.491820
v -0.138886 0.170442 -0.491820
v -0.210000 0.340883 -0.342951
v 0.000000 0.656072 -0.066327
v -0.206286 0.720073 -0.000252
v -0.278762 0.445873 -0.250493
v 0.069443 0.000000 -0.641767
v -0.208330 0.000000 -0.641049
v 0.210000 0.340883 -0.342951
v 0.276286 0.655854 -0.065577
v 0.206286 0.720073 -0.000252
v 0.279443 0.255662 -0.417386
v 0.000000 0.085221 -0.567333
v -0.278330 0.085221 -0.566255
v -0.068762 0.445873 -0.250493
v 0.206286 0.655854 -0.065577
v 0.208330 0.085221 -0.566255
v -0.069443 0.255662 -0.417386
v -0.070000 0.340883 -0.342951
v 0.000000 0.445946 -0.250743
v -0.068762 0.720218 -0.000752
v -0.276286 0.655854 -0.065577
v 0.208330 0.000000 -0.641049
v -0.069443 0.000000 -0.641767
v 0.070000 0.340883 -0.342951
v 0.278762 0.445873 -0.250493
v 0.068762 0.720218 -0.000752
v 0.278330 0.085221 -0.566255
v 0.000000 0.255662 -0.417745
v -0.279443 0.255662 -0.417386
v -0.206286 0.655854 -0.065577
v 0.068762 0.445873 -0.250493
v 0.069443 0.255662 -0.417386
v -0.208330 0.085221 -0.566255
v -0.208887 0.170442 -0.491820
v -0.139443 0.255662 -0.417386
v -0.209443 0.255662 -0.417386
v 0.139443 0.255662 -0.417386
v 0.208887 0.170442 -0.491820
v 0.209443 0.255662 -0.417386
v 0.068762 0.550936 -0.158285
v 0.137524 0.655926 -0.065827
v 0.068762 0.655999 -0.066077
v -0.137524 0.655926 -0.065827
v -0.068762 0.550936 -0.158285
v -0.068762 0.655999 -0.066077
v -0.069443 0.085221 -0.566973
v -0.069443 0.170442 -0.492180
v -0.138886 0.085221 -0.566614
v 0.069443 0.085221 -0.566973
v 0.138886 0.085221 -0.566614
v 0.069443 0.170442 -0.492180
v 0.208762 0.445873 -0.250493
v 0.207524 0.550864 -0.158035
v 0.138762 0.445873 -0.250493
v -0.208762 0.445873 -0.250493
v -0.138762 0.445873 -0.250493
v -0.207524 0.550864 -0.158035
v -0.000000 -0.484300 -0.555997
v 0.279874 -0.484351 -0.556081
v 0.303915 -1.103198 -0.000001
v -0.000000 -1.103193 -0.000001
v -0.000000 -0.000000 -0.981042
v -0.278541 -0.000000 -0.983328
v 0.278541 -0.000000 -0.983328
v -0.279874 -0.484351 -0.556081
v -0.303915 -1.103198 -0.000001
v -0.000000 -0.340883 -0.342951
v -0.000000 -0.720291 -0.001002
v 0.275048 -0.720000 -0.000002
v 0.280000 -0.340883 -0.342951
v -0.277773 -0.000000 -0.640690
v -0.000000 -0.000000 -0.642126
v 0.277773 -0.000000 -0.640690
v -0.280000 -0.340883 -0.342951
v -0.275048 -0.720000 -0.000002
v 0.140000 -0.340883 -0.342951
v -0.000000 -0.551009 -0.158535
v 0.137524 -0.720145 -0.000502
v 0.277524 -0.550864 -0.158035
v -0.138886 -0.000000 -0.641408
v 0.138886 -0.000000 -0.641408
v -0.140000 -0.340883 -0.342951
v -0.277524 -0.550864 -0.158035
v -0.137524 -0.720145 -0.000502
v -0.278887 -0.170442 -0.491820
v -0.000000 -0.170442 -0.492539
v 0.278886 -0.170442 -0.491820
v 0.137524 -0.550864 -0.158035
v -0.137524 -0.550864 -0.158035
v -0.138887 -0.170442 -0.491820
v 0.138886 -0.170442 -0.491820
v 0.210000 -0.340883 -0.342951
v -0.000000 -0.656072 -0.066327
v 0.206286 -0.720073 -0.000252
v 0.278762 -0.445873 -0.250493
v -0.069443 -0.000000 -0.641767
v 0.208330 -0.000000 -0.641049
v -0.210000 -0.340883 -0.342951
v -0.276286 -0.655854 -0.065577
v -0.206286 -0.720073 -0.000252
v -0.279443 -0.255662 -0.417386
v -0.000000 -0.085221 -0.567333
v 0.278330 -0.085221 -0.566255
v 0.068762 -0.445873 -0.250493
v -0.206286 -0.655854 -0.065577
v -0.208330 -0.085221 -0.566255
v 0.069443 -0.255662 -0.417386
v 0.070000 -0.340883 -0.342951
v -0.000000 -0.445946 -0.250743
v 0.068762 -0.720218 -0.000752
v 0.276286 -0.655854 -0.065577
v -0.208330 -0.000000 -0.641049
v 0.069443 -0.000000 -0.641767
v -0.070000 -0.340883 -0.342951
v -0.278762 -0.445873 -0.250493
v -0.068762 -0.720218 -0.000752
v -0.278330 -0.085221 -0.566255
v -0.000000 -0.255662 -0.417745
v 0.279443 -0.255662 -0.417386
v 0.206286 -0.655854 -0.065577
v -0.068762 -0.445873 -0.250493
v -0.069443 -0.255662 -0.417386
v 0.208330 -0.085221 -0.566255
v 0.208886 -0.170442 -0.491820
v 0.139443 -0.255662 -0.417386
v 0.209443 -0.255662 -0.417386
v -0.139443 -0.255662 -0.417386
v -0.208887 -0.170442 -0.491820
v -0.209443 -0.255662 -0.417386
v -0.068762 -0.550936 -0.158285
v -0.137524 -0.655926 -0.065827
v -0.068762 -0.655999 -0.066077
v 0.137524 -0.655926 -0.065827
v 0.068762 -0.550936 -0.158285
v 0.068762 -0.655999 -0.066077
v 0.069443 -0.085221 -0.566973
v 0.069443 -0.170442 -0.492180
v 0.138886 -0.085221 -0.566614
v -0.069443 -0.085221 -0.566973
v -0.138887 -0.085221 -0.566614
v -0.069443 -0.170442 -0.492180
v -0.208762 -0.445873 -0.250493
v -0.207524 -0.550864 -0.158035
v -0.138762 -0.445873 -0.250493
v 0.208762 -0.445873 -0.250493
v 0.138762 -0.445873 -0.250493
v 0.207524 -0.550864 -0.158035
vt 0.500000 0.125000
vt 0.625000 0.125000
vt 0.625000 0.250000
vt 0.500000 0.250000
vt 0.375000 0.125000
vt 0.375000 0.250000
vt 0.375000 0.000000
vt 0.500000 0.000000
vt 0.625000 0.000000
vt 0.500000 0.125000
vt 0.531250 0.156250
vt 0.531250 0.125000
vt 0.375000 0.250000
vt 0.406250 0.218750
vt 0.375000 0.218750
vt 0.375000 0.000000
vt 0.406250 0.031250
vt 0.406250 0.000000
vt 0.531250 0.093750
vt 0.500000 0.093750
vt 0.625000 0.250000
vt 0.593750 0.250000
vt 0.562500 0.250000
vt 0.531250 0.250000
vt 0.500000 0.250000
vt 0.375000 0.187500
vt 0.375000 0.156250
vt 0.375000 0.125000
vt 0.625000 0.000000
vt 0.625000 0.031250
vt 0.625000 0.062500
vt 0.625000 0.093750
vt 0.625000 0.125000
vt 0.468750 0.250000
vt 0.437500 0.250000
vt 0.406250 0.250000
vt 0.375000 0.093750
vt 0.375000 0.062500
vt 0.375000 0.031250
vt 0.625000 0.156250
vt 0.625000 0.187500
vt 0.625000 0.218750
vt 0.500000 0.156250
vt 0.562500 0.062500
vt 0.593750 0.062500
vt 0.593750 0.031250
vt 0.562500 0.093750
vt 0.562500 0.125000
vt 0.593750 0.125000
vt 0.593750 0.093750
vt 0.437500 0.062500
vt 0.437500 0.093750
vt 0.468750 0.093750
vt 0.406250 0.062500
vt 0.406250 0.093750
vt 0.437500 0.187500
vt 0.468750 0.187500
vt 0.468750 0.156250
vt 0.437500 0.218750
vt 0.468750 0.218750
vt 0.562500 0.187500
vt 0.562500 0.218750
vt 0.593750 0.218750
vt 0.531250 0.187500
vt 0.500000 0.187500
vt 0.500000 0.218750
vt 0.531250 0.218750
vt 0.500000 0.062500
vt 0.531250 0.031250
vt 0.500000 0.031250
vt 0.531250 0.062500
vt 0.562500 0.031250
vt 0.437500 0.000000
vt 0.468750 0.031250
vt 0.468750 0.000000
vt 0.437500 0.031250
vt 0.468750 0.062500
vt 0.406250 0.156250
vt 0.406250 0.187500
vt 0.437500 0.156250
vt 0.593750 0.156250
vt 0.562500 0.156250
vt 0.593750 0.187500
vt 0.468750 0.125000
vt 0.437500 0.125000
vt 0.406250 0.125000
vt 0.500000 0.000000
vt 0.593750 0.000000
vt 0.562500 0.000000
vt 0.531250 0.000000
vt 0.500000 0.125000
vt 0.625000 0.125000
vt 0.625000 0.250000
vt 0.500000 0.250000
vt 0.375000 0.125000
vt 0.375000 0.250000
vt 0.375000 0.000000
vt 0.500000 0.000000
vt 0.625000 0.000000
vt 0.500000 0.125000
vt 0.531250 0.156250
vt 0.531250 0.125000
vt 0.375000 0.250000
vt 0.406250 0.218750
vt 0.375000 0.218750
vt 0.375000 0.000000
vt 0.406250 0.031250
vt 0.406250 0.000000
vt 0.531250 0.093750
vt 0.500000 0.093750
vt 0.625000 0.250000
vt 0.593750 0.250000
vt 0.562500 0.250000
vt 0.531250 0.250000
vt 0.500000 0.250000
vt 0.375000 0.187500
vt 0.375000 0.156250
vt 0.375000 0.125000
vt 0.625000 0.000000
vt 0.625000 0.031250
vt 0.625000 0.062500
vt 0.625000 0.093750
vt 0.625000 0.125000
vt 0.468750 0.250000
vt 0.437500 0.250000
vt 0.406250 0.250000
vt 0.375000 0.093750
vt 0.375000 0.062500
vt 0.375000 0.031250
vt 0.625000 0.156250
vt 0.625000 0.187500
vt 0.625000 0.218750
vt 0.500000 0.156250
vt 0.562500 0.062500
vt 0.593750 0.062500
vt 0.593750 0.031250
vt 0.562500 0.093750
vt 0.562500 0.125000
vt 0.593750 0.125000
vt 0.593750 0.093750
vt 0.437500 0.062500
vt 0.437500 0.093750
vt 0.468750 0.093750
vt 0.406250 0.062500
vt 0.406250 0.093750
vt 0.437500 0.187500
vt 0.468750 0.187500
vt 0.468750 0.156250
vt 0.437500 0.218750
vt 0.468750 0.218750
vt 0.562500 0.187500
vt 0.562500 0.218750
vt 0.593750 0.218750
vt 0.531250 0.187500
vt 0.500000 0.187500
vt 0.500000 0.218750
vt 0.531250 0.218750
vt 0.500000 0.062500
vt 0.531250 0.031250
vt 0.500000 0.031250
vt 0.531250 0.062500
vt 0.562500 0.031250
vt 0.437500 0.000000
vt 0.468750 0.031250
vt 0.468750 0.000000
vt 0.437500 0.031250
vt 0.468750 0.062500
vt 0.406250 0.156250
vt 0.406250 0.187500
vt 0.437500 0.156250
vt 0.593750 0.156250
vt 0.562500 0.156250
vt 0.593750 0.187500
vt 0.468750 0.125000
vt 0.437500 0.125000
vt 0.406250 0.125000
vt 0.500000 0.000000
vt 0.593750 0.000000
vt 0.562500 0.000000
vt 0.531250 0.000000
vn 0.0000 0.6645 -0.7473
vn 0.0017 0.6645 -0.7473
vn 0.0002 0.6683 -0.7439
vn 0.0000 0.6683 -0.7439
vn -0.0017 0.6645 -0.7473
vn -0.0002 0.6683 -0.7439
vn -0.0032 0.6606 -0.7508
vn 0.0000 0.6606 -0.7508
vn 0.0032 0.6606 -0.7508
vn -0.0000 -0.6595 0.7517
vn 0.0017 -0.6603 0.7510
vn 0.0000 -0.6594 0.7518
vn -0.0019 -0.7138 0.7003
vn -0.0018 -0.6875 0.7262
vn 0.0000 -0.6882 0.7256
vn -0.0025 -0.6590 0.7521
vn -0.0019 -0.6587 0.7524
vn -0.0039 -0.6596 0.7516
vn 0.0019 -0.6587 0.7524
vn -0.0000 -0.6596 0.7516
vn 0.0000 -0.0012 1.0000
vn 0.0017 -0.0012 1.0000
vn 0.9997 -0.0223 0.0123
vn 0.9987 -0.0436 0.0269
vn 0.9996 -0.0256 0.0146
vn -0.9997 -0.0223 0.0123
vn -1.0000 -0.0043 0.0000
vn -0.9996 -0.0256 0.0146
vn -0.0017 -0.0012 1.0000
vn 1.0000 -0.0043 0.0000
vn -0.9987 -0.0436 0.0269
vn -0.0033 -0.7131 0.7010
vn 0.0000 -0.6578 0.7532
vn -0.0017 -0.6603 0.7510
vn -0.0034 -0.6596 0.7516
vn -0.0034 -0.6868 0.7268
vn 0.0034 -0.6868 0.7268
vn 0.0018 -0.6875 0.7262
vn 0.0034 -0.6596 0.7516
vn 0.0000 -0.6868 0.7268
vn 0.0039 -0.6596 0.7516
vn 0.0000 -0.6609 0.7505
vn 0.0019 -0.7138 0.7003
vn 0.0025 -0.6590 0.7521
vn 0.0033 -0.7131 0.7010
vn 0.0000 -0.7131 0.7010
vn -0.0000 -0.6645 -0.7473
vn -0.0017 -0.6645 -0.7473
vn -0.0002 -0.6683 -0.7439
vn 0.0000 -0.6683 -0.7439
vn 0.0017 -0.6645 -0.7473
vn 0.0002 -0.6683 -0.7439
vn 0.0032 -0.6606 -0.7508
vn -0.0000 -0.6606 -0.7508
vn -0.0032 -0.6606 -0.7508
vn 0.0000 0.6595 0.7517
vn -0.0017 0.6603 0.7510
vn 0.0000 0.6594 0.7518
vn 0.0019 0.7138 0.7003
vn 0.0018 0.6875 0.7262
vn 0.0000 0.6882 0.7256
vn 0.0025 0.6590 0.7521
vn 0.0019 0.6587 0.7524
vn 0.0039 0.6596 0.7516
vn -0.0019 0.6587 0.7524
vn -0.0000 0.6596 0.7516
vn 0.0000 0.0012 1.0000
vn -0.0017 0.0012 1.0000
vn -0.9997 0.0223 0.0123
vn -0.9987 0.0436 0.0269
vn -0.9996 0.0256 0.0146
vn 0.9997 0.0223 0.0123
vn 1.0000 0.0043 0.0000
vn 0.9996 0.0256 0.0146
vn 0.0017 0.0012 1.0000
vn -1.0000 0.0043 0.0000
vn 0.9987 0.0436 0.0269
vn 0.0033 0.7131 0.7010
vn 0.0000 0.6578 0.7532
vn 0.0017 0.6603 0.7510
vn 0.0034 0.6596 0.7516
vn 0.0034 0.6868 0.7268
vn -0.0034 0.6868 0.7268
vn -0.0018 0.6875 0.7262
vn -0.0034 0.6596 0.7516
vn -0.0000 0.6868 0.7268
vn -0.0039 0.6596 0.7516
vn 0.0000 0.6609 0.7505
vn -0.0019 0.7138 0.7003
vn -0.0025 0.6590 0.7521
vn -0.0033 0.7131 0.7010
vn -0.0000 0.7131 0.7010
usemtl None.004
s 1
f 1/1/1 2/2/2 3/3/3 4/4/4
f 8/5/5 1/1/1 4/4/4 9/6/6
f 6/7/7 5/8/8 1/1/1 8/5/5
f 5/8/8 7/9/9 2/2/2 1/1/1
f 10/10/10 47/11/11 51/12/12
f 18/13/13 48/14/14 42/15/15
f 14/16/16 49/17/17 55/18/18
f 10/10/10 50/19/19 61/20/20
f 4/4/21 3/3/22 12/21/22 37/22/22 21/23/22 53/24/22 11/25/21
f 8/5/23 9/6/24 18/13/24 42/15/24 26/26/24 58/27/24 17/28/25
f 2/2/26 7/9/27 16/29/27 46/30/27 30/31/27 62/32/27 13/33/28
f 9/6/29 4/4/21 11/25/21 59/34/29 27/35/29 43/36/29 18/13/29
f 6/7/30 8/5/23 17/28/25 44/37/30 28/38/30 60/39/30 14/16/30
f 3/3/31 2/2/26 13/33/28 38/40/31 22/41/31 54/42/31 12/21/31
f 10/10/10 52/43/20 47/11/11
f 18/13/13 43/36/32 48/14/14
f 14/16/16 60/39/33 49/17/17
f 10/10/10 51/12/12 50/19/19
f 34/44/19 67/45/33 66/46/19
f 34/44/19 68/47/33 67/45/33
f 19/48/12 35/49/12 69/50/33
f 33/51/17 70/52/33 65/53/17
f 33/51/17 71/54/33 70/52/33
f 28/38/33 44/37/33 72/55/33
f 32/56/34 73/57/35 64/58/34
f 32/56/34 74/59/36 73/57/35
f 27/35/32 59/34/32 75/60/36
f 31/61/11 76/62/37 63/63/38
f 31/61/11 77/64/39 76/62/37
f 20/65/20 36/66/40 78/67/37
f 29/68/20 79/69/41 45/70/20
f 29/68/20 80/71/41 79/69/41
f 34/44/19 66/46/19 81/72/41
f 23/73/18 82/74/18 39/75/18
f 23/73/18 83/76/18 82/74/18
f 33/51/17 65/53/17 84/77/18
f 26/26/42 85/78/42 58/27/42
f 26/26/42 86/79/42 85/78/42
f 32/56/34 64/58/34 87/80/42
f 19/48/12 88/81/42 35/49/12
f 19/48/12 89/82/42 88/81/42
f 31/61/11 63/63/38 90/83/42
f 90/83/42 54/42/15 22/41/42
f 90/83/42 63/63/38 54/42/15
f 63/63/38 12/21/43 54/42/15
f 88/81/42 90/83/42 22/41/42
f 88/81/42 89/82/42 90/83/42
f 89/82/42 31/61/11 90/83/42
f 35/49/12 38/40/42 13/33/12
f 35/49/12 88/81/42 38/40/42
f 88/81/42 22/41/42 38/40/42
f 87/80/42 57/84/12 25/85/12
f 87/80/42 64/58/34 57/84/12
f 64/58/34 10/10/10 57/84/12
f 85/78/42 87/80/42 25/85/12
f 85/78/42 86/79/42 87/80/42
f 86/79/42 32/56/34 87/80/42
f 58/27/42 41/86/12 17/28/12
f 58/27/42 85/78/42 41/86/12
f 85/78/42 25/85/12 41/86/12
f 84/77/18 61/20/20 29/68/20
f 84/77/18 65/53/17 61/20/20
f 65/53/17 10/10/10 61/20/20
f 82/74/18 84/77/18 29/68/20
f 82/74/18 83/76/18 84/77/18
f 83/76/18 33/51/17 84/77/18
f 39/75/18 45/70/20 15/87/20
f 39/75/18 82/74/18 45/70/20
f 82/74/18 29/68/20 45/70/20
f 81/72/41 40/88/41 24/89/41
f 81/72/41 66/46/19 40/88/41
f 66/46/19 16/29/44 40/88/41
f 79/69/41 81/72/41 24/89/41
f 79/69/41 80/71/41 81/72/41
f 80/71/41 34/44/19 81/72/41
f 45/70/20 56/90/41 15/87/20
f 45/70/20 79/69/41 56/90/41
f 79/69/41 24/89/41 56/90/41
f 78/67/37 53/24/45 21/23/45
f 78/67/37 36/66/40 53/24/45
f 36/66/40 11/25/46 53/24/45
f 76/62/37 78/67/37 21/23/45
f 76/62/37 77/64/39 78/67/37
f 77/64/39 20/65/20 78/67/37
f 63/63/38 37/22/45 12/21/43
f 63/63/38 76/62/37 37/22/45
f 76/62/37 21/23/45 37/22/45
f 75/60/36 36/66/40 20/65/20
f 75/60/36 59/34/32 36/66/40
f 59/34/32 11/25/46 36/66/40
f 73/57/35 75/60/36 20/65/20
f 73/57/35 74/59/36 75/60/36
f 74/59/36 27/35/32 75/60/36
f 64/58/34 52/43/20 10/10/10
f 64/58/34 73/57/35 52/43/20
f 73/57/35 20/65/20 52/43/20
f 72/55/33 41/86/12 25/85/12
f 72/55/33 44/37/33 41/86/12
f 44/37/33 17/28/12 41/86/12
f 70/52/33 72/55/33 25/85/12
f 70/52/33 71/54/33 72/55/33
f 71/54/33 28/38/33 72/55/33
f 65/53/17 57/84/12 10/10/10
f 65/53/17 70/52/33 57/84/12
f 70/52/33 25/85/12 57/84/12
f 69/50/33 62/32/33 30/31/33
f 69/50/33 35/49/12 62/32/33
f 35/49/12 13/33/12 62/32/33
f 67/45/33 69/50/33 30/31/33
f 67/45/33 68/47/33 69/50/33
f 68/47/33 19/48/12 69/50/33
f 66/46/19 46/30/33 16/29/44
f 66/46/19 67/45/33 46/30/33
f 67/45/33 30/31/33 46/30/33
f 50/19/19 68/47/33 34/44/19
f 50/19/19 51/12/12 68/47/33
f 51/12/12 19/48/12 68/47/33
f 49/17/17 71/54/33 33/51/17
f 49/17/17 60/39/33 71/54/33
f 60/39/33 28/38/33 71/54/33
f 48/14/14 74/59/36 32/56/34
f 48/14/14 43/36/32 74/59/36
f 43/36/32 27/35/32 74/59/36
f 47/11/11 77/64/39 31/61/11
f 47/11/11 52/43/20 77/64/39
f 52/43/20 20/65/20 77/64/39
f 61/20/20 80/71/41 29/68/20
f 61/20/20 50/19/19 80/71/41
f 50/19/19 34/44/19 80/71/41
f 55/18/18 83/76/18 23/73/18
f 55/18/18 49/17/17 83/76/18
f 49/17/17 33/51/17 83/76/18
f 42/15/15 86/79/42 26/26/42
f 42/15/15 48/14/14 86/79/42
f 48/14/14 32/56/34 86/79/42
f 51/12/12 89/82/42 19/48/12
f 51/12/12 47/11/11 89/82/42
f 47/11/11 31/61/11 89/82/42
usemtl None.003
f 91/91/47 92/92/48 93/93/49 94/94/50
f 98/95/51 91/91/47 94/94/50 99/96/52
f 96/97/53 95/98/54 91/91/47 98/95/51
f 95/98/54 97/99/55 92/92/48 91/91/47
f 100/100/56 137/101/57 141/102/58
f 108/103/59 138/104/60 132/105/61
f 104/106/62 139/107/63 145/108/64
f 100/100/56 140/109/65 151/110/66
f 94/94/67 93/93/68 102/111/68 127/112/68 111/113/68 143/114/68 101/115/67
f 98/95/69 99/96/70 108/103/70 132/105/70 116/116/70 148/117/70 107/118/71
f 92/92/72 97/99/73 106/119/73 136/120/73 120/121/73 152/122/73 103/123/74
f 99/96/75 94/94/67 101/115/67 149/124/75 117/125/75 133/126/75 108/103/75
f 96/97/76 98/95/69 107/118/71 134/127/76 118/128/76 150/129/76 104/106/76
f 93/93/77 92/92/72 103/123/74 128/130/77 112/131/77 144/132/77 102/111/77
f 100/100/56 142/133/66 137/101/57
f 108/103/59 133/126/78 138/104/60
f 104/106/62 150/129/79 139/107/63
f 100/100/56 141/102/58 140/109/65
f 124/134/65 157/135/79 156/136/65
f 124/134/65 158/137/79 157/135/79
f 109/138/58 125/139/58 159/140/79
f 123/141/63 160/142/79 155/143/63
f 123/141/63 161/144/79 160/142/79
f 118/128/79 134/127/79 162/145/79
f 122/146/80 163/147/81 154/148/80
f 122/146/80 164/149/82 163/147/81
f 117/125/78 149/124/78 165/150/82
f 121/151/57 166/152/83 153/153/84
f 121/151/57 167/154/85 166/152/83
f 110/155/66 126/156/86 168/157/83
f 119/158/66 169/159/87 135/160/66
f 119/158/66 170/161/87 169/159/87
f 124/134/65 156/136/65 171/162/87
f 113/163/64 172/164/64 129/165/64
f 113/163/64 173/166/64 172/164/64
f 123/141/63 155/143/63 174/167/64
f 116/116/88 175/168/88 148/117/88
f 116/116/88 176/169/88 175/168/88
f 122/146/80 154/148/80 177/170/88
f 109/138/58 178/171/88 125/139/58
f 109/138/58 179/172/88 178/171/88
f 121/151/57 153/153/84 180/173/88
f 180/173/88 144/132/61 112/131/88
f 180/173/88 153/153/84 144/132/61
f 153/153/84 102/111/89 144/132/61
f 178/171/88 180/173/88 112/131/88
f 178/171/88 179/172/88 180/173/88
f 179/172/88 121/151/57 180/173/88
f 125/139/58 128/130/88 103/123/58
f 125/139/58 178/171/88 128/130/88
f 178/171/88 112/131/88 128/130/88
f 177/170/88 147/174/58 115/175/58
f 177/170/88 154/148/80 147/174/58
f 154/148/80 100/100/56 147/174/58
f 175/168/88 177/170/88 115/175/58
f 175/168/88 176/169/88 177/170/88
f 176/169/88 122/146/80 177/170/88
f 148/117/88 131/176/58 107/118/58
f 148/117/88 175/168/88 131/176/58
f 175/168/88 115/175/58 131/176/58
f 174/167/64 151/110/66 119/158/66
f 174/167/64 155/143/63 151/110/66
f 155/143/63 100/100/56 151/110/66
f 172/164/64 174/167/64 119/158/66
f 172/164/64 173/166/64 174/167/64
f 173/166/64 123/141/63 174/167/64
f 129/165/64 135/160/66 105/177/66
f 129/165/64 172/164/64 135/160/66
f 172/164/64 119/158/66 135/160/66
f 171/162/87 130/178/87 114/179/87
f 171/162/87 156/136/65 130/178/87
f 156/136/65 106/119/90 130/178/87
f 169/159/87 171/162/87 114/179/87
f 169/159/87 170/161/87 171/162/87
f 170/161/87 124/134/65 171/162/87
f 135/160/66 146/180/87 105/177/66
f 135/160/66 169/159/87 146/180/87
f 169/159/87 114/179/87 146/180/87
f 168/157/83 143/114/91 111/113/91
f 168/157/83 126/156/86 143/114/91
f 126/156/86 101/115/92 143/114/91
f 166/152/83 168/157/83 111/113/91
f 166/152/83 167/154/85 168/157/83
f 167/154/85 110/155/66 168/157/83
f 153/153/84 127/112/91 102/111/89
f 153/153/84 166/152/83 127/112/91
f 166/152/83 111/113/91 127/112/91
f 165/150/82 126/156/86 110/155/66
f 165/150/82 149/124/78 126/156/86
f 149/124/78 101/115/92 126/156/86
f 163/147/81 165/150/82 110/155/66
f 163/147/81 164/149/82 165/150/82
f 164/149/82 117/125/78 165/150/82
f 154/148/80 142/133/66 100/100/56
f 154/148/80 163/147/81 142/133/66
f 163/147/81 110/155/66 142/133/66
f 162/145/79 131/176/58 115/175/58
f 162/145/79 134/127/79 131/176/58
f 134/127/79 107/118/58 131/176/58
f 160/142/79 162/145/79 115/175/58
f 160/142/79 161/144/79 162/145/79
f 161/144/79 118/128/79 162/145/79
f 155/143/63 147/174/58 100/100/56
f 155/143/63 160/142/79 147/174/58
f 160/142/79 115/175/58 147/174/58
f 159/140/79 152/122/79 120/121/79
f 159/140/79 125/139/58 152/122/79
f 125/139/58 103/123/58 152/122/79
f 157/135/79 159/140/79 120/121/79
f 157/135/79 158/137/79 159/140/79
f 158/137/79 109/138/58 159/140/79
f 156/136/65 136/120/79 106/119/90
f 156/136/65 157/135/79 136/120/79
f 157/135/79 120/121/79 136/120/79
f 140/109/65 158/137/79 124/134/65
f 140/109/65 141/102/58 158/137/79
f 141/102/58 109/138/58 158/137/79
f 139/107/63 161/144/79 123/141/63
f 139/107/63 150/129/79 161/144/79
f 150/129/79 118/128/79 161/144/79
f 138/104/60 164/149/82 122/146/80
f 138/104/60 133/126/78 164/149/82
f 133/126/78 117/125/78 164/149/82
f 137/101/57 167/154/85 121/151/57
f 137/101/57 142/133/66 167/154/85
f 142/133/66 110/155/66 167/154/85
f 151/110/66 170/161/87 119/158/66
f 151/110/66 140/109/65 170/161/87
f 140/109/65 124/134/65 170/161/87
f 145/108/64 173/166/64 113/163/64
f 145/108/64 139/107/63 173/166/64
f 139/107/63 123/141/63 173/166/64
f 132/105/61 176/169/88 116/116/88
f 132/105/61 138/104/60 176/169/88
f 138/104/60 122/146/80 176/169/88
f 141/102/58 179/172/88 109/138/58
f 141/102/58 137/101/57 179/172/88
f 137/101/57 121/151/57 179/172/88
